<svg width="58" height="51" viewBox="0 0 58 51" fill="none" xmlns="http://www.w3.org/2000/svg">
<path d="M57.9999 25.3889C57.9999 27.5388 56.0097 29.279 53.5555 29.279H33.5555V46.779C33.5555 48.9289 31.5652 50.6667 29.1111 50.6667C26.6569 50.6667 24.6666 48.9289 24.6666 46.779V29.279H4.66661C2.21245 29.279 0.222168 27.5388 0.222168 25.3889C0.222168 23.2391 2.21245 21.5012 4.66661 21.5012H24.6666V4.00125C24.6666 1.85142 26.6569 0.111145 29.1111 0.111145C31.5652 0.111145 33.5555 1.85142 33.5555 4.00125V21.5012H53.5555C56.0138 21.5 57.9999 23.2379 57.9999 25.3889Z" fill="#4A00B7"/>
</svg>
